<svg width="20" height="18" viewBox="0 0 20 18" fill="none" xmlns="http://www.w3.org/2000/svg">
<path d="M11.5361 0.5625H18.6611C19.1436 0.5625 19.5518 0.970703 19.5518 1.45312V7.39062C19.5518 7.91016 19.1436 8.28125 18.6611 8.28125H11.5361C11.0166 8.28125 10.6455 7.91016 10.6455 7.39062V1.45312C10.6455 0.970703 11.0166 0.5625 11.5361 0.5625ZM8.56738 0.5625C9.0498 0.5625 9.45801 0.970703 9.45801 1.45312V7.39062C9.45801 7.91016 9.0498 8.28125 8.56738 8.28125H1.44238C0.922852 8.28125 0.551758 7.91016 0.551758 7.39062V1.45312C0.551758 0.970703 0.922852 0.5625 1.44238 0.5625H8.56738ZM0.551758 10.3594C0.551758 9.87695 0.922852 9.46875 1.44238 9.46875H8.56738C9.0498 9.46875 9.45801 9.87695 9.45801 10.3594V16.2969C9.45801 16.8164 9.0498 17.1875 8.56738 17.1875H1.44238C0.922852 17.1875 0.551758 16.8164 0.551758 16.2969V10.3594ZM11.5361 17.1875C11.0166 17.1875 10.6455 16.8164 10.6455 16.2969V10.3594C10.6455 9.87695 11.0166 9.46875 11.5361 9.46875H18.6611C19.1436 9.46875 19.5518 9.87695 19.5518 10.3594V16.2969C19.5518 16.8164 19.1436 17.1875 18.6611 17.1875H11.5361Z" fill="white"/>
</svg>
