<svg width="23" height="24" viewBox="0 0 23 24" fill="none" xmlns="http://www.w3.org/2000/svg">
<path fill-rule="evenodd" clip-rule="evenodd" d="M11.6876 2.40039C6.78159 2.40039 2.80444 6.69845 2.80444 12.0004C2.80444 17.3023 6.78159 21.6004 11.6876 21.6004C16.5937 21.6004 20.5708 17.3023 20.5708 12.0004C20.5708 6.69846 16.5937 2.40039 11.6876 2.40039ZM10.7359 17.2005C10.7359 17.7685 11.162 18.2291 11.6876 18.2291C12.2133 18.2291 12.6394 17.7685 12.6394 17.2005C12.6394 16.6324 12.2133 16.1719 11.6876 16.1719C11.162 16.1719 10.7359 16.6324 10.7359 17.2005ZM10.26 10.2004C10.26 9.3483 10.8992 8.65754 11.6876 8.65754C12.4761 8.65754 13.1153 9.3483 13.1153 10.2004C13.1153 11.0525 12.4761 11.7432 11.6876 11.7432C11.162 11.7432 10.7359 12.2038 10.7359 12.7718V14.1148C10.7359 14.6829 11.162 15.1434 11.6876 15.1434C12.2133 15.1434 12.6394 14.6829 12.6394 14.1148V13.6513C14.0154 13.2087 15.0188 11.8312 15.0188 10.2004C15.0188 8.21217 13.5274 6.60039 11.6876 6.60039C9.84787 6.60039 8.35644 8.21217 8.35644 10.2004C8.35644 10.7685 8.78257 11.229 9.30821 11.229C9.83386 11.229 10.26 10.7685 10.26 10.2004Z" fill="white"/>
</svg>
