<svg width="19" height="20" viewBox="0 0 19 20" fill="none" xmlns="http://www.w3.org/2000/svg">
<path d="M5.5627 0V2.45506H8.07074V2.52871C3.80708 3.11793 0.546631 6.72687 0.546631 11.0478C0.546631 15.7861 4.48425 19.6405 9.32476 19.6405C14.1653 19.6405 18.1029 15.7861 18.1029 11.0478C18.1029 9.943 17.8521 8.91188 17.4759 7.97895L15.1936 8.91188C15.4694 9.62385 15.5948 10.3113 15.5948 11.0723C15.5948 14.4849 12.8109 17.21 9.32476 17.21C5.83859 17.21 3.05467 14.4849 3.05467 11.0723C3.05467 7.6598 5.83859 4.93468 9.32476 4.93468C10.0772 4.93468 10.8045 5.05743 11.5318 5.32749L12.3846 3.01973C11.8077 2.82332 11.2058 2.72512 10.5788 2.62692V2.47961H13.0868V0.0245506H5.5627V0ZM18.1029 2.84787C18.1029 2.84787 8.94855 9.7466 8.47203 10.2131C7.9955 10.7041 7.9955 11.416 8.47203 11.9071C8.94855 12.3981 9.70096 12.3981 10.2026 11.9071C10.7042 11.416 18.128 2.84787 18.128 2.84787H18.1029Z" fill="white"/>
</svg>
