<svg width="22" height="24" viewBox="0 0 22 24" fill="none" xmlns="http://www.w3.org/2000/svg">
<g clip-path="url(#clip0_517_11353)">
<path d="M13.1517 10C14.6034 10 15.7802 8.65685 15.7802 7C15.7802 5.34315 14.6034 4 13.1517 4C11.7 4 10.5232 5.34315 10.5232 7C10.5232 8.65685 11.7 10 13.1517 10Z" stroke="white" stroke-width="2" stroke-linecap="round" stroke-linejoin="round"/>
<path d="M3.51392 7H10.5233" stroke="white" stroke-width="2" stroke-linecap="round" stroke-linejoin="round"/>
<path d="M15.7803 7L17.5326 7" stroke="white" stroke-width="2" stroke-linecap="round" stroke-linejoin="round"/>
<path d="M7.89486 20C9.34655 20 10.5234 18.6569 10.5234 17C10.5234 15.3431 9.34655 14 7.89486 14C6.44318 14 5.26636 15.3431 5.26636 17C5.26636 18.6569 6.44318 20 7.89486 20Z" stroke="white" stroke-width="2" stroke-linecap="round" stroke-linejoin="round"/>
<path d="M3.51392 17H5.26625" stroke="white" stroke-width="2" stroke-linecap="round" stroke-linejoin="round"/>
<path d="M10.5232 17L17.5325 17" stroke="white" stroke-width="2" stroke-linecap="round" stroke-linejoin="round"/>
</g>
<defs>
<clipPath id="clip0_517_11353">
<rect width="21.028" height="24" fill="white" transform="translate(0.00927734)"/>
</clipPath>
</defs>
</svg>
