<svg width="28" height="28" viewBox="0 0 28 28" fill="none" xmlns="http://www.w3.org/2000/svg">
<path fill-rule="evenodd" clip-rule="evenodd" d="M28 14C28 21.7338 21.7338 28 14 28C6.26617 28 0 21.7338 0 14C0 6.26617 6.26617 0 14 0C21.7338 0 28 6.26617 28 14Z" fill="#50B748"/>
<path fill-rule="evenodd" clip-rule="evenodd" d="M16.9439 27.6723C17.2122 27.6175 17.4817 27.558 17.7454 27.4903C18.1969 27.3666 18.639 27.2161 19.0719 27.0481C19.5094 26.879 19.934 26.6876 20.3482 26.4788C20.767 26.2641 21.173 26.032 21.565 25.7811C21.957 25.5303 22.335 25.2573 22.7037 24.9656C23.0689 24.6786 23.42 24.3683 23.7525 24.0405C24.0897 23.7161 24.4082 23.3743 24.7092 23.0196C25.0102 22.6638 25.2925 22.2905 25.5527 21.9031C25.8164 21.5205 26.0625 21.1238 26.2865 20.7131C26.5094 20.3036 26.7147 19.8836 26.8967 19.4555C27.0799 19.0226 27.2385 18.5851 27.375 18.1383C27.494 17.7463 27.5944 17.3543 27.6807 16.953L19.3589 8.6358C17.9414 7.21013 16.014 6.41213 14.0039 6.41213C11.989 6.40746 10.0582 7.21013 8.63485 8.6358C7.21502 10.058 6.41235 11.9853 6.41235 14.0001C6.41235 16.0103 7.21502 17.9423 8.63485 19.3645L16.9439 27.6676V27.6723Z" fill="#10A711"/>
<path fill-rule="evenodd" clip-rule="evenodd" d="M17.4544 11.6668C17.3447 11.6761 17.2397 11.7169 17.1487 11.7858L12.888 14.9848L10.914 13.0061C10.4859 12.5651 9.64353 13.4028 10.0892 13.8309L12.4225 16.1643C12.6279 16.3649 12.9475 16.3883 13.1844 16.2191L17.851 12.7191C18.243 12.4368 18.0015 11.6761 17.5139 11.6668H17.4544ZM13.9999 6.41211C15.9412 6.41211 17.8779 7.15528 19.3642 8.63578C20.7852 10.0579 21.5879 11.9853 21.5879 14.0001C21.5879 16.0149 20.7852 17.9423 19.3642 19.3644C17.942 20.7854 16.0147 21.5881 13.9999 21.5881C11.985 21.5881 10.0577 20.7854 8.63553 19.3644C7.21453 17.9423 6.41187 16.0149 6.41187 14.0001C6.41187 11.9853 7.21453 10.0579 8.63553 8.63578C10.0577 7.21011 11.9897 6.41211 13.9999 6.41211Z" fill="#D9D9DB"/>
</svg>
