                  <svg
                    width="22"
                    height="14"
                    viewBox="0 0 22 14"
                    fill="none"
                    xmlns="http://www.w3.org/2000/svg"
                  >
                    <path
                      fill-rule="evenodd"
                      clip-rule="evenodd"
                      d="M1.28582 7.04606C1.96324 8.22161 5.08072 12.8276 10.8158 12.8276C16.5508 12.8276 19.6687 8.22161 20.3461 7.04606C19.6687 5.87097 16.5508 1.26497 10.8158 1.26497C5.08072 1.26497 1.96324 5.87097 1.28582 7.04606ZM10.8158 14C3.50008 14 0.20285 7.54419 0.0669149 7.27187C-0.022956 7.09258 -0.022956 6.91013 0.0669149 6.73084C0.20285 6.45852 3.50008 0 10.8158 0C18.1314 0 21.4287 6.45852 21.565 6.73084C21.6545 6.91013 21.6545 7.09258 21.565 7.27187C21.4287 7.58755 18.1314 14 10.8158 14Z"
                      fill="#202244"
                    />
                    <path
                      fill-rule="evenodd"
                      clip-rule="evenodd"
                      d="M10.8159 2.52959C8.33199 2.52959 6.29973 4.56185 6.29973 7.04572C6.29973 9.52959 8.33199 11.5618 10.8159 11.5618C13.2997 11.5618 15.332 9.52959 15.332 7.04572C15.332 4.56185 13.2997 2.52959 10.8159 2.52959ZM10.8159 12.7369C7.65457 12.7369 5.12463 10.1609 5.12463 7.04572C5.12463 3.93049 7.70063 1.35449 10.8159 1.35449C13.9311 1.35449 16.5075 3.93049 16.5075 7.04572C16.5075 10.1609 13.9771 12.7369 10.8159 12.7369Z"
                      fill="#202244"
                    />
                    <path
                      fill-rule="evenodd"
                      clip-rule="evenodd"
                      d="M10.8158 10.2067C9.09925 10.2067 7.65454 8.80583 7.65454 7.04544C7.65454 6.73021 7.92641 6.45789 8.24209 6.45789C8.55777 6.45789 8.82964 6.73021 8.82964 7.04544C8.82964 8.12841 9.6868 8.98828 10.7698 8.98828C11.8554 8.98828 12.7122 8.12841 12.7122 7.04544C12.7122 5.96292 11.8554 5.10305 10.7698 5.10305C10.4541 5.10305 10.1845 4.83389 10.1845 4.5155C10.1845 4.19983 10.4541 3.93066 10.7698 3.93066C12.4863 3.93066 13.9311 5.32886 13.9311 7.09195C13.9311 8.85189 12.5329 10.2067 10.8158 10.2067Z"
                      fill="#202244"
                    />
                  </svg>