                  <svg
                    width="23"
                    height="23"
                    viewBox="0 0 23 23"
                    fill="none"
                    xmlns="http://www.w3.org/2000/svg"
                  >
                    <path
                      fill-rule="evenodd"
                      clip-rule="evenodd"
                      d="M9.21852 22.7712C8.81962 22.6929 8.56446 22.3054 8.6428 21.9094C8.72115 21.5105 9.10855 21.2554 9.50387 21.3337C14.6508 22.3385 19.7072 19.2227 21.1253 14.1742C22.5406 9.12285 19.8395 3.83357 14.9175 2.01729C9.99908 0.203164 4.50999 2.46938 2.3063 7.22823C0.0990224 11.9871 1.92105 17.6415 6.48655 20.2189C6.83155 20.4187 6.95015 20.8593 6.75321 21.2043C6.55412 21.55 6.1128 21.6679 5.7678 21.471C0.573398 18.481 -1.45707 12.0043 1.10455 6.58495C3.66762 1.16916 9.95955 -1.37449 15.5665 0.745102C21.1728 2.86182 24.2138 8.9331 22.5513 14.691C20.8896 20.4496 15.0835 23.9643 9.2099 22.7712H9.21852Z"
                      fill="#202244"
                    />
                    <path
                      fill-rule="evenodd"
                      clip-rule="evenodd"
                      d="M11.5176 4.31445C7.54792 4.31445 4.33008 7.5323 4.33008 11.502C4.33008 15.4716 7.54792 18.6895 11.5176 18.6895C15.4872 18.6895 18.7051 15.4716 18.7051 11.502C18.7051 7.5323 15.4872 4.31445 11.5176 4.31445ZM11.5176 20.127C6.75298 20.127 2.89258 16.2665 2.89258 11.502C2.89258 6.73736 6.75298 2.87695 11.5176 2.87695C16.2822 2.87695 20.1426 6.73736 20.1426 11.502C20.1426 16.2665 16.2822 20.127 11.5176 20.127Z"
                      fill="#202244"
                    />
                    <path
                      fill-rule="evenodd"
                      clip-rule="evenodd"
                      d="M11.5175 17.251C11.1215 17.251 10.7988 16.9283 10.7988 16.5323C10.7988 16.1363 11.1215 15.8135 11.5175 15.8135C11.9136 15.8135 12.2363 16.1363 12.2363 16.5323C12.2363 16.9283 11.9136 17.251 11.5175 17.251ZM11.5175 14.376C11.1215 14.376 10.7988 14.0533 10.7988 13.6573C10.7988 12.6438 11.4083 11.7282 12.3427 11.3357C13.4208 10.9088 13.9685 9.70416 13.5811 8.61166C13.1937 7.517 12.0113 6.92763 10.9052 7.27263C9.79901 7.62122 9.16507 8.78057 9.46767 9.89822C9.56901 10.2828 9.33614 10.6759 8.95161 10.7737C8.56707 10.875 8.17392 10.6421 8.07545 10.2576C7.59532 8.39891 8.66195 6.49207 10.4955 5.92785C12.329 5.36075 14.2833 6.33466 14.9345 8.14016C15.5857 9.94566 14.7045 11.9445 12.9328 12.6805C12.5224 12.8322 12.2449 13.2196 12.2363 13.6573C12.2363 14.0533 11.9136 14.376 11.5175 14.376Z"
                      fill="#202244"
                    />
                  </svg>