                 <svg
                    width="20"
                    height="18"
                    viewBox="0 0 20 18"
                    fill="none"
                    xmlns="http://www.w3.org/2000/svg"
                  >
                    <path
                      fill-rule="evenodd"
                      clip-rule="evenodd"
                      d="M4.293 5.387C4.48 5.367 4.668 5.422 4.812 5.543L8.969 8.859C9.488 9.269 10.219 9.269 10.738 8.859L14.852 5.543H14.859L14.949 5.484C15.246 5.309 15.633 5.371 15.859 5.648C15.981 5.797 16.031 5.988 16.012 6.176C15.988 6.367 15.895 6.539 15.746 6.656L11.633 9.98C10.586 10.828 9.094 10.828 8.051 9.98L3.926 6.656L3.852 6.582C3.617 6.324 3.602 5.93 3.82 5.648C3.938 5.5 4.109 5.406 4.293 5.387ZM14.195 0C17.398 0.012 19.992 2.621 20 5.844V7.309L19.992 7.402C19.945 7.75 19.652 8.02 19.293 8.02L19.285 8.004L19.172 7.992C19.027 7.969 18.891 7.898 18.781 7.793C18.652 7.66 18.574 7.477 18.574 7.289V5.844C18.551 3.418 16.606 1.457 14.195 1.434H5.805C3.395 1.457 1.449 3.418 1.426 5.844V12.156C1.449 14.582 3.395 16.543 5.805 16.566H14.195C16.606 16.543 18.551 14.582 18.574 12.156C18.617 11.789 18.922 11.512 19.289 11.512C19.652 11.512 19.961 11.789 20 12.156C19.992 15.379 17.398 17.988 14.195 18H5.805C2.602 17.996 0.004 15.379 0 12.156V5.844C0 2.617 2.598 0 5.805 0H14.195Z"
                      fill="#200E32"
                    />
                  </svg>