                  <svg
                    width="20"
                    height="18"
                    viewBox="0 0 20 18"
                    fill="none"
                    xmlns="http://www.w3.org/2000/svg"
                  >
                    <path
                      fill-rule="evenodd"
                      clip-rule="evenodd"
                      d="M13.391 13.5L14.8499 9.6048L16.3088 13.5H13.391ZM15.7499 7.2H13.9499L9.89988 18H11.6999L12.7088 15.3H16.9838L17.9999 18H19.7999L15.7499 7.2ZM10.6838 11.763L8.39508 9.5031L8.42298 9.4779C9.99168 7.731 11.1059 5.7231 11.7629 3.6H14.3999V1.8H8.09988V0H6.29988V1.8H-0.00012207V3.5892H10.0547C9.44988 5.3298 8.49678 6.975 7.19988 8.4168C6.36288 7.488 5.67078 6.4719 5.12178 5.4H3.32178C3.97968 6.8661 4.87968 8.2548 6.00468 9.5031L1.42008 14.0202L2.69988 15.3L7.19988 10.8L9.99798 13.5981L10.6838 11.763Z"
                      fill="#1D1D1B"
                    />
                  </svg>