                  <svg
                    width="20"
                    height="19"
                    viewBox="0 0 20 19"
                    fill="none"
                    xmlns="http://www.w3.org/2000/svg"
                  >
                    <path
                      d="M15.3092 0.792341C14.8464 0.491091 14.2269 0.622126 13.9257 1.08502C13.6244 1.54791 13.7554 2.16736 14.2183 2.46861L15.3092 0.792341ZM18.4437 11.628L19.4024 11.9125L19.4024 11.9125L18.4437 11.628ZM1.36864 11.628L0.40995 11.9125L0.409952 11.9125L1.36864 11.628ZM5.59404 2.46861C6.05693 2.16736 6.18796 1.54791 5.88671 1.08502C5.58546 0.622126 4.96601 0.491091 4.50312 0.792341L5.59404 2.46861ZM10.9054 1C10.9054 0.447715 10.4577 0 9.90537 0C9.35309 0 8.90537 0.447715 8.90537 1H10.9054ZM8.90537 8.69121C8.90537 9.24349 9.35309 9.69121 9.90537 9.69121C10.4577 9.69121 10.9054 9.24349 10.9054 8.69121H8.90537ZM14.2183 2.46861C17.1516 4.37762 18.4806 7.98834 17.485 11.3436L19.4024 11.9125C20.6498 7.70849 18.9847 3.18434 15.3092 0.792341L14.2183 2.46861ZM17.485 11.3436C16.4895 14.6986 13.4059 17 9.90618 17V19C14.2913 19 18.155 16.1165 19.4024 11.9125L17.485 11.3436ZM9.90618 17C6.40642 17 3.32287 14.6986 2.32732 11.3436L0.409952 11.9125C1.6574 16.1165 5.52104 19 9.90618 19V17ZM2.32732 11.3436C1.33175 7.98834 2.66072 4.37762 5.59404 2.46861L4.50312 0.792341C0.827657 3.18434 -0.837475 7.70849 0.40995 11.9125L2.32732 11.3436ZM8.90537 1V8.69121H10.9054V1H8.90537Z"
                      fill="#202244"
                    />
                  </svg>