                  <svg
                    width="17"
                    height="20"
                    viewBox="0 0 17 20"
                    fill="none"
                    xmlns="http://www.w3.org/2000/svg"
                  >
                    <path
                      fill-rule="evenodd"
                      clip-rule="evenodd"
                      d="M8.46609 0C11.5361 0 14.9791 2.164 15.3681 5.641V7.453C15.5011 8.105 15.8101 8.715 16.2551 9.211C16.2821 9.242 16.3071 9.273 16.3251 9.309C16.7321 9.922 16.9661 10.629 17.0011 11.359L16.9741 11.543C17.0051 12.543 16.6731 13.523 16.0321 14.297C15.2201 15.176 14.1071 15.727 12.9111 15.84C9.96209 16.16 6.98509 16.16 4.04009 15.84C2.86009 15.719 1.76709 15.168 0.970086 14.297C0.321086 13.535 -0.0219141 12.559 0.00108588 11.563V11.438C0.0520859 10.688 0.302086 9.961 0.731086 9.336L0.802086 9.246C1.24709 8.746 1.55209 8.141 1.68909 7.488V5.676L1.73509 5.574C1.88809 5.316 2.17709 5.168 2.48109 5.199C2.82109 5.238 3.09909 5.496 3.15309 5.832V7.645V7.742C2.96609 8.652 2.54409 9.496 1.92709 10.188C1.68909 10.566 1.55609 10.996 1.53609 11.438V11.633C1.51709 12.254 1.72409 12.863 2.12209 13.348C2.67309 13.914 3.41109 14.262 4.20009 14.332C7.05209 14.641 9.93209 14.641 12.7861 14.332C13.5991 14.258 14.3541 13.895 14.9071 13.305C15.2861 12.832 15.4821 12.242 15.4661 11.641V11.438C15.4461 10.992 15.3181 10.563 15.0831 10.18C14.4431 9.492 13.9931 8.648 13.7901 7.734C13.7861 7.703 13.7861 7.668 13.7901 7.637V5.816C13.5321 3.16 10.8611 1.512 8.53609 1.512C7.54809 1.512 6.57509 1.762 5.71609 2.242L5.61009 2.297C5.39209 2.383 5.14609 2.367 4.93909 2.25C4.70009 2.109 4.55209 1.852 4.56009 1.578C4.56709 1.301 4.72409 1.051 4.97009 0.926C6.03609 0.324 7.23909 0.008 8.46609 0ZM10.1421 17.57C10.4191 17.32 10.8451 17.305 11.1421 17.551C11.4661 17.816 11.5131 18.297 11.2431 18.617C10.5791 19.48 9.55309 19.988 8.45809 20L8.23909 19.992C7.23109 19.918 6.29809 19.422 5.68109 18.617L5.61409 18.527C5.42309 18.211 5.48509 17.793 5.78209 17.551C6.10609 17.281 6.59109 17.328 6.86009 17.652C6.97809 17.809 7.11809 17.945 7.27809 18.062C7.70009 18.375 8.23109 18.508 8.75109 18.43C9.27509 18.352 9.74309 18.074 10.0571 17.652H10.0641L10.1421 17.57Z"
                      fill="#202244"
                    />
                  </svg>