                  <svg
                    width="20"
                    height="19"
                    viewBox="0 0 20 19"
                    fill="none"
                    xmlns="http://www.w3.org/2000/svg"
                  >
                    <path
                      fill-rule="evenodd"
                      clip-rule="evenodd"
                      d="M15.832 8.625C16.199 8.625 16.496 8.93 16.496 9.309C16.496 9.684 16.199 9.988 15.832 9.988H15.527C15.16 9.988 14.859 9.684 14.859 9.309C14.859 8.93 15.16 8.625 15.527 8.625H15.832ZM14.215 0C17.406 0 20 2.656 20 5.918V13.082C20 16.344 17.406 19 14.215 19C13.848 19 13.547 18.695 13.547 18.316C13.547 17.941 13.848 17.637 14.215 17.637C16.668 17.637 18.668 15.594 18.668 13.082V7.363H15.383C14.305 7.367 13.426 8.266 13.426 9.367C13.426 10.473 14.305 11.371 15.383 11.371H16.746C17.117 11.371 17.414 11.68 17.414 12.055C17.414 12.43 17.117 12.738 16.746 12.738H15.383C13.57 12.734 12.094 11.227 12.09 9.367C12.094 7.512 13.57 6 15.383 6H18.668V5.918C18.668 3.406 16.668 1.363 14.215 1.363H5.785C3.805 1.363 2.145 2.699 1.566 4.527H10.355C10.723 4.527 11.02 4.832 11.02 5.211C11.02 5.586 10.723 5.891 10.355 5.891H1.336L1.332 5.918V13.082C1.332 15.594 3.328 17.637 5.785 17.637H10.027C10.395 17.637 10.691 17.941 10.691 18.316C10.691 18.695 10.395 19 10.027 19H5.785C2.594 19 0 16.344 0 13.082V5.918C0 2.656 2.594 0 5.785 0H14.215Z"
                      fill="#202244"
                    />
                  </svg>