<svg
width="22"
height="22"
viewBox="0 0 22 22"
fill="none"
xmlns="http://www.w3.org/2000/svg"
>
<path
  fill-rule="evenodd"
  clip-rule="evenodd"
  d="M15.9151 16.6182C15.7833 16.6172 15.6563 16.5645 15.5626 16.4717L14.1308 15.0362C13.9503 14.839 13.9571 14.5352 14.1456 14.3457C14.3341 14.1562 14.6388 14.1495 14.8361 14.3292L15.9151 15.4112L18.1231 13.1992C18.2471 13.0625 18.4356 13.006 18.6143 13.0517C18.7931 13.0967 18.9316 13.2365 18.9766 13.4142C19.0216 13.5927 18.9648 13.7822 18.8281 13.9052L16.2686 16.4717C16.1748 16.5655 16.0478 16.6182 15.9151 16.6182ZM12.4618 16.675C12.0293 16.883 11.5763 17.044 11.1093 17.1553C11.0303 17.175 10.9483 17.175 10.8703 17.1553C7.95509 16.4455 6.12409 14.2402 5.26584 10.415C5.20609 10.1465 5.37609 9.88 5.64434 9.82125C5.91309 9.76175 6.17984 9.93175 6.23809 10.2005C7.33109 15.0705 9.96684 15.9005 10.9881 16.1553C11.3781 16.0625 11.7558 15.9288 12.1173 15.755C12.1953 16.0743 12.3116 16.383 12.4618 16.675ZM19.3331 11.2002C18.6046 10.597 17.7031 10.2393 16.7588 10.18C16.9093 9.4755 17.0196 8.763 17.0878 8.04525C17.1046 7.90825 17.0606 7.7715 16.9678 7.67025C16.8798 7.5645 16.7511 7.501 16.6133 7.495C14.4638 7.40525 12.5566 6.50975 11.3788 5.03525C11.2813 4.921 11.1396 4.8555 10.9893 4.8555C10.8398 4.8555 10.6973 4.921 10.6006 5.03525C9.42309 6.50975 7.51659 7.40525 5.36534 7.495C5.08909 7.50575 4.87409 7.73825 4.88584 8.01475C4.89659 8.291 5.12909 8.50575 5.40534 8.495C7.62609 8.40525 9.62709 7.54 10.9893 6.1055C12.3361 7.46975 14.1288 8.30375 16.0391 8.455C15.9668 9.05175 15.8643 9.6445 15.7306 10.2305C13.5683 10.6015 11.9883 12.4768 11.9873 14.67C11.9873 15.0352 12.0303 15.3995 12.1173 15.755C12.1963 16.0743 12.3116 16.383 12.4618 16.675C12.8926 17.543 13.5928 18.2482 14.4581 18.6847C13.3888 19.3252 12.2138 19.7688 10.9893 19.9953C4.82634 18.7853 1.80184 13.42 2.00684 4.04525C2.00984 3.99325 2.04209 3.94725 2.08909 3.92675C2.13584 3.90525 2.19159 3.913 2.23159 3.94525C3.05384 4.4925 4.02359 4.7755 5.01084 4.755C6.87309 4.755 8.39434 3.88475 8.89359 2.54C8.99034 2.23175 9.26934 2.0155 9.59284 2H12.3926C12.7138 2.0175 12.9903 2.23275 13.0861 2.54C13.3566 3.2305 13.8643 3.80075 14.5186 4.1505C15.2686 4.56075 16.1133 4.7685 16.9678 4.755C17.9561 4.7755 18.9258 4.4925 19.7481 3.94525C19.7716 3.92575 19.8018 3.915 19.8331 3.915C19.9073 3.913 19.9688 3.97075 19.9726 4.04525C20.0616 6.44725 19.8468 8.8515 19.3331 11.2002ZM16.7988 18.1505C16.6923 18.1642 16.5861 18.171 16.4786 18.17C16.1211 18.172 15.7656 18.1163 15.4258 18.005C14.5011 17.715 13.7403 17.049 13.3301 16.17C13.1768 15.8625 13.0753 15.5312 13.0303 15.1905C13.0001 15.0188 12.9843 14.8448 12.9853 14.67C12.9863 13.1418 13.9776 11.79 15.4346 11.3302H15.4406C15.7753 11.2238 16.1261 11.17 16.4776 11.17H16.5236C17.4806 11.1827 18.3896 11.59 19.0381 12.295C19.3408 12.6173 19.5763 12.9963 19.7316 13.4102C19.8906 13.8115 19.9718 14.2382 19.9718 14.67C19.9718 16.4757 18.5968 17.9845 16.7988 18.1505ZM20.9708 4.0195C20.9581 3.40225 20.4503 2.9095 19.8321 2.915C19.5948 2.916 19.3623 2.99125 19.1691 3.13C18.5146 3.555 17.7481 3.7725 16.9688 3.755C15.8761 3.75 14.4483 3.34475 14.0246 2.19525C13.7871 1.4925 13.1348 1.014 12.3926 1H9.59284C8.84984 1.014 8.19534 1.49125 7.95609 2.19525C7.53134 3.34475 6.10459 3.755 5.01184 3.755C4.23259 3.7715 3.46584 3.55375 2.81159 3.13C2.61834 2.99125 2.38584 2.916 2.14859 2.915C1.53034 2.9095 1.02259 3.40225 1.00984 4.0195C0.790092 14.005 4.11934 19.715 10.9016 20.9953C10.9308 20.999 10.9611 21.001 10.9913 21C11.0226 21.001 11.0548 20.999 11.0861 20.9953C12.7363 20.709 14.3028 20.0597 15.6718 19.0947C15.9386 19.1455 16.2091 19.17 16.4806 19.17C18.9621 19.1642 20.9708 17.1515 20.9718 14.67C20.9736 13.7423 20.6856 12.837 20.1486 12.0802C20.7666 9.8095 21.0401 7.12325 20.9708 4.0195Z"
  fill="#202244"
/>
<path
  d="M15.5626 16.4717L15.421 16.613L15.4219 16.6139L15.5626 16.4717ZM14.1308 15.0362L13.9832 15.1714L13.9892 15.1775L14.1308 15.0362ZM14.8361 14.3292L14.9779 14.1879L14.9708 14.1814L14.8361 14.3292ZM15.9151 15.4112L15.7735 15.5525L15.915 15.6944L16.0566 15.5525L15.9151 15.4112ZM18.1231 13.1992L18.2648 13.3407L18.2713 13.3336L18.1231 13.1992ZM18.6143 13.0517L18.5648 13.2455L18.5655 13.2457L18.6143 13.0517ZM18.9766 13.4142L19.1705 13.3654L19.1705 13.3652L18.9766 13.4142ZM18.8281 13.9052L18.6941 13.7563L18.6865 13.764L18.8281 13.9052ZM16.2686 16.4717L16.41 16.6132L16.4102 16.613L16.2686 16.4717ZM11.1093 17.1553L11.063 16.9607L11.0608 16.9612L11.1093 17.1553ZM10.8703 17.1553L10.9194 16.9614L10.9177 16.9609L10.8703 17.1553ZM5.26584 10.415L5.07062 10.4584L5.07069 10.4588L5.26584 10.415ZM5.64434 9.82125L5.68713 10.0166L5.68757 10.0165L5.64434 9.82125ZM6.23809 10.2005L6.04262 10.2429L6.04295 10.2443L6.23809 10.2005ZM10.9881 16.1553L10.9397 16.3493L10.987 16.3611L11.0344 16.3498L10.9881 16.1553ZM12.1173 15.755L12.3116 15.7075L12.2531 15.4679L12.0307 15.5747L12.1173 15.755ZM16.7588 10.18L16.5633 10.1382L16.5148 10.3651L16.7463 10.3796L16.7588 10.18ZM17.0878 8.04525L16.8892 8.02097L16.8887 8.02632L17.0878 8.04525ZM16.9678 7.67025L16.8139 7.79832L16.8204 7.80535L16.9678 7.67025ZM16.6133 7.495L16.622 7.29519L16.6217 7.29517L16.6133 7.495ZM11.3788 5.03525L11.5352 4.91036L11.531 4.90542L11.3788 5.03525ZM10.6006 5.03525L10.4479 4.90595L10.4443 4.91045L10.6006 5.03525ZM5.36534 7.495L5.37312 7.69485L5.37368 7.69483L5.36534 7.495ZM4.88584 8.01475L5.08569 8.00697L5.08566 8.00626L4.88584 8.01475ZM5.40534 8.495L5.41312 8.69485L5.41342 8.69484L5.40534 8.495ZM10.9893 6.1055L11.1317 5.96499L10.9866 5.81799L10.8443 5.96778L10.9893 6.1055ZM16.0391 8.455L16.2376 8.47904L16.2627 8.27208L16.0549 8.25562L16.0391 8.455ZM15.7306 10.2305L15.7644 10.4276L15.8959 10.4051L15.9256 10.275L15.7306 10.2305ZM11.9873 14.67L11.7873 14.6699V14.67H11.9873ZM12.1173 15.755L11.9231 15.8025L11.9232 15.803L12.1173 15.755ZM12.4618 16.675L12.641 16.5861L12.6397 16.5835L12.4618 16.675ZM14.4581 18.6847L14.5609 18.8563L14.8724 18.6697L14.5482 18.5062L14.4581 18.6847ZM10.9893 19.9953L10.9508 20.1915L10.9882 20.1989L11.0257 20.1919L10.9893 19.9953ZM2.00684 4.04525L1.80705 4.03372L1.80689 4.04088L2.00684 4.04525ZM2.08909 3.92675L2.16907 4.11011L2.17266 4.10846L2.08909 3.92675ZM2.23159 3.94525L2.10606 4.10095L2.11317 4.10668L2.12078 4.11175L2.23159 3.94525ZM5.01084 4.755V4.55496L5.00669 4.55504L5.01084 4.755ZM8.89359 2.54L9.08133 2.6097L9.08441 2.59989L8.89359 2.54ZM9.59284 2V1.79977L9.58327 1.80023L9.59284 2ZM12.3926 2L12.4035 1.8H12.3926V2ZM13.0861 2.54L12.8951 2.5995L12.8973 2.60631L12.8999 2.61295L13.0861 2.54ZM14.5186 4.1505L14.6146 3.97503L14.6129 3.97412L14.5186 4.1505ZM16.9678 4.755L16.972 4.55491L16.9647 4.55503L16.9678 4.755ZM19.7481 3.94525L19.8589 4.11175L19.8677 4.1059L19.8758 4.09916L19.7481 3.94525ZM19.8331 3.915V4.11507L19.8385 4.11493L19.8331 3.915ZM19.9726 4.04525L20.1725 4.03784L20.1723 4.0352L19.9726 4.04525ZM16.4786 18.17L16.4805 17.97L16.4775 17.97L16.4786 18.17ZM15.4258 18.005L15.4881 17.8149L15.4857 17.8142L15.4258 18.005ZM13.3301 16.17L13.5114 16.0854L13.5091 16.0808L13.3301 16.17ZM13.0303 15.1905L13.2288 15.1643L13.2273 15.1558L13.0303 15.1905ZM12.9853 14.67L13.1853 14.6711L13.1853 14.6701L12.9853 14.67ZM15.4346 11.3302V11.1302H15.4038L15.3744 11.1395L15.4346 11.3302ZM15.4406 11.3302V11.5303H15.4716L15.5012 11.5208L15.4406 11.3302ZM16.5236 11.17L16.5263 10.97H16.5236V11.17ZM19.0381 12.295L18.8909 12.4304L18.8923 12.4319L19.0381 12.295ZM19.7316 13.4102L19.5443 13.4805L19.5457 13.4839L19.7316 13.4102ZM19.8321 2.915L19.8329 3.115L19.8339 3.11499L19.8321 2.915ZM19.1691 3.13L19.2781 3.29792L19.2857 3.29246L19.1691 3.13ZM16.9688 3.755L16.9733 3.55502L16.9698 3.555L16.9688 3.755ZM14.0246 2.19525L13.835 2.25931L13.8369 2.26443L14.0246 2.19525ZM12.3926 1L12.3964 0.8H12.3926V1ZM9.59284 1V0.799965L9.58907 0.800035L9.59284 1ZM7.95609 2.19525L8.14376 2.26459L8.14545 2.2596L7.95609 2.19525ZM5.01184 3.755V3.55496L5.00761 3.55504L5.01184 3.755ZM2.81159 3.13L2.69481 3.29265L2.70287 3.29787L2.81159 3.13ZM2.14859 2.915L2.14681 3.11499L2.14775 3.115L2.14859 2.915ZM1.00984 4.0195L1.20979 4.0239L1.2098 4.02363L1.00984 4.0195ZM10.9016 20.9953L10.8644 21.1921L10.8762 21.1936L10.9016 20.9953ZM10.9913 21L10.9978 20.7997L10.9847 20.8001L10.9913 21ZM11.0861 20.9953L11.11 21.1941L11.1203 21.1923L11.0861 20.9953ZM15.6718 19.0947L15.7092 18.8983L15.6259 18.8824L15.5566 18.9313L15.6718 19.0947ZM16.4806 19.17V19.37L16.4811 19.37L16.4806 19.17ZM20.9718 14.67L20.7718 14.6696V14.6699L20.9718 14.67ZM20.1486 12.0802L19.9556 12.0277L19.9308 12.1189L19.9855 12.196L20.1486 12.0802ZM15.9166 16.4183C15.837 16.4177 15.7599 16.3857 15.7033 16.3296L15.4219 16.6139C15.5527 16.7433 15.7297 16.8168 15.9136 16.8182L15.9166 16.4183ZM15.7042 16.3305L14.2724 14.895L13.9892 15.1775L15.421 16.613L15.7042 16.3305ZM14.2784 14.9012C14.1702 14.783 14.174 14.6008 14.2874 14.4868L14.0038 14.2047C13.7402 14.4697 13.7305 14.895 13.9833 15.1713L14.2784 14.9012ZM14.2874 14.4868C14.4001 14.3735 14.5829 14.3691 14.7014 14.4771L14.9708 14.1814C14.6947 13.9299 14.2681 13.939 14.0038 14.2047L14.2874 14.4868ZM14.6945 14.4705L15.7735 15.5525L16.0567 15.27L14.9777 14.188L14.6945 14.4705ZM16.0566 15.5525L18.2646 13.3405L17.9815 13.058L15.7735 15.27L16.0566 15.5525ZM18.2713 13.3336C18.3454 13.2518 18.4577 13.2181 18.5648 13.2455L18.6639 12.858C18.4134 12.7939 18.1488 12.8732 17.9749 13.0649L18.2713 13.3336ZM18.5655 13.2457C18.6723 13.2726 18.7556 13.3562 18.7827 13.4633L19.1705 13.3652C19.1076 13.1168 18.9139 12.9209 18.6632 12.8578L18.5655 13.2457ZM18.7827 13.4631C18.8097 13.5705 18.7753 13.6837 18.6943 13.7565L18.9618 14.0539C19.1544 13.8808 19.2334 13.615 19.1705 13.3654L18.7827 13.4631ZM18.6865 13.764L16.127 16.3305L16.4102 16.613L18.9697 14.0465L18.6865 13.764ZM16.1272 16.3303C16.0708 16.3867 15.9947 16.4183 15.9151 16.4183V16.8182C16.101 16.8182 16.2788 16.7443 16.41 16.6132L16.1272 16.3303ZM12.3752 16.4948C11.9555 16.6966 11.516 16.8528 11.063 16.9607L11.1557 17.3498C11.6367 17.2352 12.1032 17.0694 12.5485 16.8552L12.3752 16.4948ZM11.0608 16.9612C11.0135 16.9731 10.965 16.9729 10.9194 16.9614L10.8212 17.3491C10.9317 17.3771 11.0472 17.3769 11.1578 17.3493L11.0608 16.9612ZM10.9177 16.9609C9.50003 16.6158 8.35141 15.9094 7.45052 14.8256C6.54726 13.7389 5.88555 12.2635 5.46099 10.3712L5.07069 10.4588C5.50438 12.3918 6.1873 13.9316 7.14291 15.0813C8.1009 16.2338 9.32541 16.985 10.823 17.3496L10.9177 16.9609ZM5.46107 10.3716C5.42533 10.2109 5.52722 10.0516 5.68713 10.0166L5.60155 9.62588C5.22496 9.70836 4.98686 10.0821 5.07062 10.4584L5.46107 10.3716ZM5.68757 10.0165C5.84874 9.98084 6.00798 10.083 6.04263 10.2429L6.43355 10.1581C6.3517 9.78049 5.97744 9.54266 5.60111 9.62598L5.68757 10.0165ZM6.04295 10.2443C6.5967 12.7116 7.54625 14.1754 8.5047 15.0559C9.46297 15.9362 10.414 16.2182 10.9397 16.3493L11.0365 15.9612C10.541 15.8376 9.66347 15.5772 8.7753 14.7613C7.88731 13.9456 6.97249 12.5594 6.43324 10.1567L6.04295 10.2443ZM11.0344 16.3498C11.4382 16.2538 11.8295 16.1152 12.204 15.9353L12.0307 15.5747C11.6822 15.7423 11.3179 15.8712 10.9418 15.9607L11.0344 16.3498ZM11.9231 15.8025C12.0049 16.1373 12.1267 16.4608 12.284 16.7665L12.6397 16.5835C12.4965 16.3052 12.3858 16.0112 12.3116 15.7075L11.9231 15.8025ZM19.4606 11.0462C18.6997 10.416 17.7579 10.0423 16.7714 9.98039L16.7463 10.3796C17.6483 10.4362 18.5095 10.778 19.2055 11.3543L19.4606 11.0462ZM16.9544 10.2218C17.1065 9.50985 17.218 8.78972 17.2869 8.06418L16.8887 8.02632C16.8212 8.73628 16.7122 9.44115 16.5633 10.1382L16.9544 10.2218ZM17.2864 8.06952C17.3102 7.87445 17.2475 7.67948 17.1153 7.53515L16.8204 7.80535C16.8737 7.86352 16.899 7.94205 16.8893 8.02098L17.2864 8.06952ZM17.1216 7.54232C16.9973 7.39296 16.8157 7.30363 16.622 7.29519L16.6046 7.69481C16.6864 7.69837 16.7624 7.73604 16.8141 7.79818L17.1216 7.54232ZM16.6217 7.29517C14.5209 7.20746 12.6714 6.33304 11.5351 4.91043L11.2226 5.16007C12.4418 6.68646 14.4068 7.60304 16.605 7.69483L16.6217 7.29517ZM11.531 4.90542C11.3955 4.74672 11.1982 4.6555 10.9893 4.6555V5.0555C11.081 5.0555 11.1671 5.09528 11.2267 5.16508L11.531 4.90542ZM10.9893 4.6555C10.7815 4.6555 10.583 4.74652 10.448 4.906L10.7532 5.1645C10.8117 5.09548 10.8982 5.0555 10.9893 5.0555V4.6555ZM10.4443 4.91045C9.30826 6.33304 7.45951 7.20746 5.357 7.29517L5.37368 7.69483C7.57367 7.60304 9.53792 6.68646 10.7569 5.16005L10.4443 4.91045ZM5.35756 7.29515C4.97096 7.3102 4.66956 7.63581 4.68602 8.02324L5.08566 8.00626C5.07863 7.84069 5.20722 7.7013 5.37312 7.69485L5.35756 7.29515ZM4.68599 8.02253C4.70104 8.40933 5.02667 8.70989 5.41312 8.69485L5.39756 8.29515C5.23151 8.30161 5.09214 8.17267 5.08569 8.00697L4.68599 8.02253ZM5.41342 8.69484C7.68013 8.60323 9.73233 7.71962 11.1344 6.24322L10.8443 5.96778C9.52185 7.36038 7.57206 8.20727 5.39727 8.29516L5.41342 8.69484ZM10.847 6.24601C12.2275 7.64443 14.0652 8.49933 16.0233 8.65438L16.0549 8.25562C14.1925 8.10817 12.4447 7.29507 11.1317 5.96499L10.847 6.24601ZM15.8405 8.43096C15.7691 9.02099 15.6678 9.60691 15.5356 10.186L15.9256 10.275C16.0609 9.68209 16.1646 9.08251 16.2376 8.47904L15.8405 8.43096ZM15.6968 10.0334C13.4385 10.4209 11.7884 12.3794 11.7873 14.6699L12.1873 14.6701C12.1883 12.5741 13.6982 10.7821 15.7644 10.4276L15.6968 10.0334ZM11.7873 14.67C11.7873 15.0509 11.8322 15.4312 11.9231 15.8025L12.3116 15.7075C12.2285 15.3678 12.1873 15.0196 12.1873 14.67H11.7873ZM11.9232 15.803C12.0059 16.1371 12.1265 16.4605 12.284 16.7665L12.6397 16.5835C12.4966 16.3055 12.3868 16.0114 12.3115 15.707L11.9232 15.803ZM12.2827 16.7639C12.7326 17.6706 13.4641 18.4073 14.368 18.8633L14.5482 18.5062C13.7216 18.0892 13.0525 17.4154 12.641 16.5861L12.2827 16.7639ZM14.3553 18.5132C13.3066 19.1414 12.1541 19.5764 10.953 19.7986L11.0257 20.1919C12.2736 19.9611 13.4711 19.5091 14.5609 18.8563L14.3553 18.5132ZM11.0279 19.799C8.00222 19.205 5.75573 17.5959 4.28435 14.9839C2.80801 12.363 2.1047 8.71855 2.20679 4.04962L1.80689 4.04088C1.70399 8.7467 2.41042 12.4722 3.93584 15.1802C5.4662 17.8969 7.81346 19.5755 10.9508 20.1915L11.0279 19.799ZM2.20651 4.05677C2.20518 4.07986 2.19128 4.10037 2.16905 4.11007L2.00913 3.74343C1.8929 3.79413 1.81451 3.90664 1.80717 4.03373L2.20651 4.05677ZM2.17266 4.10846C2.14818 4.11971 2.12323 4.11479 2.10606 4.10095L2.35712 3.78955C2.25995 3.71121 2.1235 3.69079 2.00553 3.74504L2.17266 4.10846ZM2.12078 4.11175C2.97695 4.68157 3.9868 4.97631 5.01499 4.95496L5.00669 4.55504C4.06039 4.57469 3.13074 4.30343 2.3424 3.77875L2.12078 4.11175ZM5.01084 4.955C6.92602 4.955 8.54334 4.05804 9.08109 2.60961L8.7061 2.47039C8.24534 3.71146 6.82016 4.555 5.01084 4.555V4.955ZM9.08441 2.59989C9.15613 2.3714 9.36295 2.21124 9.60241 2.19977L9.58327 1.80023C9.17573 1.81976 8.82455 2.0921 8.70277 2.48011L9.08441 2.59989ZM9.59284 2.2H12.3926V1.8H9.59284V2.2ZM12.3817 2.1997C12.6196 2.21266 12.8243 2.37201 12.8951 2.5995L13.277 2.4805C13.1564 2.09349 12.8081 1.82234 12.4035 1.8003L12.3817 2.1997ZM12.8999 2.61295C13.1878 3.3479 13.7282 3.95476 14.4243 4.32688L14.6129 3.97412C14.0005 3.64674 13.5254 3.1131 13.2723 2.46705L12.8999 2.61295ZM14.4226 4.32597C15.2031 4.75291 16.0821 4.96902 16.971 4.95498L16.9647 4.55503C16.1446 4.56798 15.3341 4.36859 14.6146 3.97503L14.4226 4.32597ZM16.9637 4.95496C17.9929 4.97631 19.0027 4.68158 19.8589 4.11175L19.6373 3.77875C18.849 4.30342 17.9193 4.57469 16.972 4.55504L16.9637 4.95496ZM19.8758 4.09916C19.8624 4.11026 19.8472 4.115 19.8331 4.115V3.715C19.7565 3.715 19.6808 3.74124 19.6204 3.79134L19.8758 4.09916ZM19.8385 4.11493C19.8022 4.1159 19.7745 4.08736 19.7728 4.0553L20.1723 4.0352C20.1632 3.85414 20.0125 3.7101 19.8277 3.71507L19.8385 4.11493ZM19.7727 4.05266C19.8611 6.43783 19.6479 8.82523 19.1377 11.1575L19.5285 11.243C20.0458 8.87777 20.2621 6.45667 20.1725 4.03784L19.7727 4.05266ZM16.7732 17.9521C16.6753 17.9648 16.5783 17.9709 16.4805 17.97L16.4767 18.37C16.5939 18.3711 16.7094 18.3637 16.8245 18.3489L16.7732 17.9521ZM16.4775 17.97C16.1415 17.9719 15.8074 17.9195 15.4881 17.8149L15.3636 18.1951C15.7238 18.313 16.1007 18.3721 16.4797 18.37L16.4775 17.97ZM15.4857 17.8142C14.6146 17.541 13.8978 16.9136 13.5113 16.0854L13.1489 16.2546C13.5828 17.1844 14.3876 17.889 15.366 18.1958L15.4857 17.8142ZM13.5091 16.0808C13.3657 15.793 13.2707 15.4831 13.2286 15.1643L12.8321 15.2167C12.88 15.5794 12.988 15.932 13.1511 16.2592L13.5091 16.0808ZM13.2273 15.1558C13.199 14.9951 13.1844 14.8331 13.1853 14.6711L12.7853 14.6689C12.7843 14.8564 12.8012 15.0424 12.8334 15.2252L13.2273 15.1558ZM13.1853 14.6701C13.1863 13.2291 14.121 11.9545 15.4948 11.521L15.3744 11.1395C13.8342 11.6255 12.7864 13.0544 12.7853 14.6699L13.1853 14.6701ZM15.4346 11.5303H15.4406V11.1302H15.4346V11.5303ZM15.5012 11.5208C15.8161 11.4207 16.1464 11.37 16.4776 11.37V10.97C16.1058 10.97 15.7346 11.0268 15.38 11.1397L15.5012 11.5208ZM16.4776 11.37H16.5236V10.97H16.4776V11.37ZM16.5209 11.37C17.4227 11.382 18.2795 11.7658 18.8909 12.4304L19.1853 12.1596C18.4997 11.4142 17.5384 10.9835 16.5263 10.97L16.5209 11.37ZM18.8923 12.4319C19.1769 12.7349 19.3983 13.0912 19.5443 13.4805L19.9189 13.34C19.7543 12.9013 19.5048 12.4996 19.1839 12.1581L18.8923 12.4319ZM19.5457 13.4839C19.6953 13.8617 19.7718 14.2634 19.7718 14.67H20.1718C20.1718 14.2131 20.0858 13.7613 19.9175 13.3366L19.5457 13.4839ZM19.7718 14.67C19.7718 16.3725 18.4755 17.7949 16.7805 17.9513L16.8172 18.3497C18.7182 18.1741 20.1718 16.579 20.1718 14.67H19.7718ZM21.1708 4.01537C21.1558 3.28845 20.5579 2.70853 19.8303 2.71501L19.8339 3.11499C20.3427 3.11047 20.7604 3.51605 20.7709 4.02363L21.1708 4.01537ZM19.8312 2.715C19.5524 2.71618 19.2795 2.80454 19.0524 2.96754L19.2857 3.29246C19.4452 3.17796 19.6372 3.11582 19.8329 3.115L19.8312 2.715ZM19.0602 2.96226C18.4394 3.36537 17.7124 3.57165 16.9733 3.55505L16.9644 3.95495C17.7838 3.97335 18.5898 3.74463 19.278 3.29774L19.0602 2.96226ZM16.9698 3.555C16.4447 3.5526 15.8434 3.4536 15.3278 3.22189C14.8131 2.99055 14.3999 2.63509 14.2122 2.12607L13.8369 2.26443C14.073 2.90491 14.5856 3.32683 15.1639 3.58673C15.7413 3.84627 16.4003 3.9524 16.9679 3.955L16.9698 3.555ZM14.2141 2.13122C13.9496 1.34866 13.2232 0.81563 12.3964 0.800036L12.3888 1.19996C13.0465 1.21237 13.6246 1.63634 13.8351 2.25928L14.2141 2.13122ZM12.3926 0.8H9.59284V1.2H12.3926V0.8ZM9.58907 0.800035C8.76197 0.81562 8.03314 1.34696 7.76673 2.1309L8.14545 2.2596C8.35754 1.63554 8.93771 1.21238 9.59661 1.19996L9.58907 0.800035ZM7.76849 2.12593C7.58029 2.63526 7.16679 2.99196 6.65229 3.22385C6.13697 3.4561 5.53623 3.555 5.01184 3.555V3.955C5.5802 3.955 6.23921 3.84877 6.81665 3.58852C7.39489 3.32791 7.90715 2.90474 8.14369 2.26457L7.76849 2.12593ZM5.00761 3.55504C4.26836 3.5707 3.54096 3.36412 2.92032 2.96213L2.70287 3.29787C3.39072 3.74338 4.19682 3.9723 5.01608 3.95496L5.00761 3.55504ZM2.92824 2.96754C2.70122 2.80454 2.42824 2.71618 2.14943 2.715L2.14775 3.115C2.34344 3.11582 2.53546 3.17796 2.69495 3.29246L2.92824 2.96754ZM2.15037 2.71501C1.42274 2.70853 0.8249 3.28845 0.809884 4.01537L1.2098 4.02363C1.22028 3.51605 1.63795 3.11047 2.14681 3.11499L2.15037 2.71501ZM0.80989 4.0151C0.699592 9.02709 1.47875 12.9926 3.15717 15.8725C4.84056 18.7611 7.4195 20.5415 10.8645 21.1918L10.9387 20.7987C7.60143 20.1688 5.12463 18.4541 3.50276 15.6711C1.87593 12.8797 1.10034 8.99741 1.20979 4.0239L0.80989 4.0151ZM10.8762 21.1936C10.9135 21.1984 10.9547 21.2013 10.9979 21.1999L10.9847 20.8001C10.9674 20.8007 10.9482 20.7996 10.927 20.7969L10.8762 21.1936ZM10.9849 21.1999C11.0286 21.2013 11.0713 21.1985 11.1099 21.1938L11.0623 20.7967C11.0384 20.7995 11.0165 20.8007 10.9977 20.8001L10.9849 21.1999ZM11.1203 21.1923C12.7997 20.901 14.3939 20.2403 15.7871 19.2582L15.5566 18.9313C14.2118 19.8792 12.673 20.517 11.0519 20.7982L11.1203 21.1923ZM15.6345 19.2912C15.914 19.3444 16.197 19.37 16.4806 19.37V18.97C16.2211 18.97 15.9632 18.9466 15.7092 18.8983L15.6345 19.2912ZM16.4811 19.37C19.0728 19.364 21.1708 17.2618 21.1718 14.6701L20.7718 14.6699C20.7709 17.0412 18.8514 18.9645 16.4801 18.97L16.4811 19.37ZM21.1718 14.6704C21.1737 13.701 20.8727 12.7551 20.3117 11.9645L19.9855 12.196C20.4984 12.9189 20.7735 13.7835 20.7718 14.6696L21.1718 14.6704ZM20.3416 12.1328C20.9659 9.8386 21.2403 7.13223 21.1708 4.01504L20.7709 4.02396C20.8398 7.11427 20.5672 9.7804 19.9556 12.0277L20.3416 12.1328Z"
  fill="#202244"
/>
</svg>