<svg width="260" height="160" viewBox="0 0 260 160" fill="none" xmlns="http://www.w3.org/2000/svg">
<path fill-rule="evenodd" clip-rule="evenodd" d="M221 13.5L215.71 16.2812L216.72 10.3906L212.44 6.21885L218.355 5.35942L221 0L223.645 5.35942L229.56 6.21885L225.28 10.3906L226.29 16.2812L221 13.5Z" fill="#FCC202"/>
<path fill-rule="evenodd" clip-rule="evenodd" d="M253 71L260 85H246L253 71Z" fill="#1D1F2A"/>
<circle cx="210" cy="57" r="6" fill="#472D2D"/>
<path fill-rule="evenodd" clip-rule="evenodd" d="M9 102.5L3.70993 105.281L4.72025 99.3906L0.440491 95.2188L6.35497 94.3594L9 89L11.645 94.3594L17.5595 95.2188L13.2798 99.3906L14.2901 105.281L9 102.5Z" fill="#FF001E"/>
<path fill-rule="evenodd" clip-rule="evenodd" d="M39 146L46 160H32L39 146Z" fill="#1D1F2A"/>
<circle cx="37" cy="115" r="4" fill="#1D1F2A"/>
<circle cx="39" cy="27" r="6" fill="#FF6B00"/>
</svg>
