                  <svg
                    width="16"
                    height="18"
                    viewBox="0 0 16 18"
                    fill="none"
                    xmlns="http://www.w3.org/2000/svg"
                  >
                    <path
                      fill-rule="evenodd"
                      clip-rule="evenodd"
                      d="M9.16551 7.9452C9.16022 8.30085 8.97407 8.6328 8.65986 8.82872V10.5296C8.65986 10.8753 8.36545 11.1536 7.99975 11.1536C7.63405 11.1536 7.33965 10.8753 7.33965 10.5296V8.82872C7.02543 8.6328 6.83928 8.30085 6.834 7.9452C6.834 7.33621 7.35549 6.84328 7.99975 6.84328C8.64402 6.84328 9.16551 7.33621 9.16551 7.9452ZM14.4728 10.3C14.0648 12.9469 10.9135 15.2817 9.07705 16.4423C8.42222 16.8566 7.57729 16.8566 6.92246 16.4423C5.08604 15.2817 1.93468 12.9469 1.53333 10.3736L1.32078 4.22764C1.31154 3.94811 1.49637 3.69977 1.78021 3.61242C3.81731 3.05085 5.78179 2.29087 7.64858 1.33995C7.86509 1.20892 8.13442 1.20892 8.35093 1.33995C10.2177 2.29087 12.1875 3.05085 14.2246 3.61242C14.5031 3.69977 14.6893 3.94811 14.6787 4.22764L14.4728 10.3ZM14.6167 2.4219C12.6826 1.89153 10.8158 1.17024 9.03613 0.277974C8.40242 -0.0926581 7.59709 -0.0926581 6.96339 0.277974C5.18373 1.17024 3.31695 1.89153 1.38283 2.4219C0.53789 2.67648 -0.024522 3.43147 0.000562107 4.27007L0.217078 10.481C0.708198 13.6058 4.16849 16.2089 6.19502 17.4806C7.28816 18.1731 8.71135 18.1731 9.80449 17.4806C11.8323 16.2089 15.2926 13.6058 15.7877 10.4123L15.9989 4.27007C16.024 3.43147 15.4629 2.67648 14.6167 2.4219Z"
                      fill="#202244"
                    />
                  </svg>